<?xml version="1.0" standalone="no"?>
<!DOCTYPE svg PUBLIC "-//W3C//DTD SVG 20010904//EN"
 "http://www.w3.org/TR/2001/REC-SVG-20010904/DTD/svg10.dtd">
<svg version="1.0" xmlns="http://www.w3.org/2000/svg"
 width="827.000000pt" height="465.000000pt" viewBox="0 0 827.000000 465.000000"
 preserveAspectRatio="xMidYMid meet">

<g transform="translate(0.000000,465.000000) scale(0.100000,-0.100000)"
fill="#000000" stroke="none">
<path d="M5020 4449 c-277 -26 -406 -73 -514 -184 -154 -159 -199 -242 -236
-434 -32 -169 -40 -273 -24 -299 12 -18 13 -39 6 -102 -4 -44 -5 -106 -1 -137
10 -79 11 -173 2 -173 -5 -1 -36 -2 -70 -3 -34 -1 -67 -7 -73 -13 -6 -6 -13
-34 -17 -62 -5 -46 -8 -52 -29 -52 -19 0 -24 5 -24 25 0 35 -47 78 -76 71 -24
-6 -50 17 -56 49 -2 11 -12 21 -23 24 -11 2 -24 10 -31 19 -6 8 -33 18 -60 23
-46 7 -51 6 -76 -22 -28 -29 -37 -75 -19 -94 17 -19 20 -60 5 -79 -8 -11 -14
-30 -14 -43 0 -21 -3 -22 -20 -13 -11 6 -20 19 -20 30 0 25 -17 35 -36 19 -22
-18 -27 -4 -13 36 12 33 11 40 -10 81 -23 43 -107 124 -129 124 -6 0 -15 7
-19 15 -11 18 -142 48 -308 69 -66 8 -165 22 -220 31 -143 21 -135 23 -120
-27 13 -47 30 -59 38 -28 10 39 27 21 27 -29 0 -56 7 -81 24 -81 17 0 38 -52
26 -64 -15 -15 -12 -23 10 -29 11 -3 20 -13 20 -22 0 -9 -6 -15 -12 -13 -18 6
-38 -16 -38 -41 0 -18 6 -21 38 -21 20 0 55 -5 77 -11 87 -23 93 -23 97 2 2
18 10 25 31 27 33 4 37 -19 5 -33 -33 -14 -29 -47 5 -59 39 -14 59 1 72 55 8
34 16 45 33 47 13 2 25 -3 28 -12 10 -27 29 -18 43 20 14 39 48 58 86 48 57
-14 77 -123 31 -169 -14 -14 -21 -27 -17 -30 5 -2 39 5 77 17 38 11 79 20 91
20 21 0 93 -64 93 -83 0 -5 9 -9 21 -9 15 0 19 -5 15 -15 -3 -8 -1 -15 5 -15
5 0 12 7 15 15 9 22 82 19 130 -4 21 -11 41 -15 44 -10 3 5 29 7 58 5 29 -2
54 -1 56 3 7 11 289 5 311 -6 11 -6 34 -15 50 -20 22 -6 29 -14 27 -29 -11
-85 -11 -150 -1 -179 12 -32 11 -35 -19 -60 -38 -32 -41 -67 -11 -126 11 -23
19 -42 17 -43 -2 -1 -25 -12 -53 -24 -124 -52 -272 -126 -295 -147 -25 -23
-26 -23 -103 -10 -74 13 -79 13 -120 -8 -39 -21 -42 -25 -45 -70 -4 -56 -26
-65 -36 -13 -8 43 -34 65 -87 77 -74 17 -114 4 -156 -51 l-38 -49 -70 2 c-62
2 -74 -1 -106 -25 -28 -22 -42 -26 -70 -22 -25 4 -52 -1 -92 -18 l-56 -24 29
-31 c18 -19 26 -34 19 -38 -7 -5 -7 -11 0 -19 6 -7 8 -16 4 -19 -8 -9 36 -57
53 -57 6 0 16 -17 22 -37 6 -21 33 -96 60 -168 35 -92 47 -134 40 -142 -17
-21 -64 42 -120 160 -39 84 -48 110 -39 121 7 8 8 16 3 18 -4 1 -22 33 -40 70
-24 49 -38 67 -54 70 -19 2 -23 8 -20 36 3 37 -12 40 -34 6 -11 -16 -10 -25 9
-60 12 -23 52 -98 89 -167 38 -69 74 -151 82 -181 8 -30 22 -66 31 -80 16 -24
16 -26 1 -26 -9 0 -16 6 -16 14 0 21 -42 96 -54 97 -39 2 -63 13 -81 35 -20
25 -20 25 -37 5 -14 -16 -14 -22 -3 -31 10 -8 14 -8 18 2 3 10 7 10 17 1 11
-10 10 -14 -4 -19 -14 -5 -15 -9 -4 -15 9 -6 4 -9 -15 -9 -33 0 -107 44 -107
64 0 8 -9 18 -20 21 -20 6 -26 20 -12 28 6 4 76 16 124 21 9 1 26 14 38 28
l20 26 -38 84 c-73 157 -113 238 -123 243 -5 4 -14 3 -21 -1 -8 -5 -7 -10 4
-18 18 -13 52 -79 109 -208 34 -77 38 -93 26 -105 -9 -10 -73 -18 -218 -27
-123 -8 -224 -20 -254 -30 -27 -9 -62 -16 -77 -16 -29 0 -34 10 -79 175 -12
44 -30 97 -40 117 -11 21 -19 48 -19 62 0 13 -7 27 -16 30 -13 5 -15 0 -12
-31 3 -21 8 -46 12 -55 7 -16 2 -18 -43 -18 -28 0 -51 -3 -51 -7 0 -5 14 -17
30 -28 17 -11 49 -51 72 -90 58 -96 115 -171 180 -231 73 -70 82 -73 174 -69
97 4 92 3 74 15 -9 6 -39 8 -72 4 -73 -8 -115 6 -162 55 l-38 39 42 7 c31 5
45 4 51 -6 6 -10 11 -11 17 -3 4 5 22 16 39 23 49 20 115 7 150 -29 73 -77 83
-87 83 -92 0 -2 -16 -2 -35 0 -22 3 -35 0 -35 -7 0 -7 6 -11 13 -9 24 5 85
-25 90 -44 5 -19 5 -19 -78 -34 l-40 -7 45 -7 c24 -4 52 -5 61 -3 9 3 19 -2
22 -10 4 -11 -5 -16 -36 -21 -23 -4 -64 -14 -90 -23 -35 -13 -53 -14 -64 -7
-22 14 -28 34 -10 34 8 0 28 7 43 15 38 20 10 19 -49 -1 -26 -9 -45 -20 -42
-25 10 -16 -59 3 -81 22 -11 11 -26 19 -34 19 -7 0 -11 3 -7 6 3 3 1 11 -4 18
-5 6 -42 60 -81 119 -39 59 -72 106 -74 104 -5 -4 51 -167 77 -224 10 -23 19
-50 19 -60 0 -10 7 -27 15 -37 8 -11 15 -27 15 -35 -1 -10 -6 -7 -15 9 l-14
25 -1 -24 c0 -21 36 -91 76 -148 9 -12 11 -24 6 -27 -10 -6 -78 77 -102 122
-6 13 -14 22 -16 19 -5 -5 39 -99 60 -128 6 -8 -6 3 -27 25 -60 65 -88 121
-108 219 -10 51 -25 112 -33 137 l-14 45 5 -52 c3 -28 2 -68 -2 -90 l-8 -38
-22 65 c-28 77 -31 59 -9 -46 8 -41 14 -98 12 -127 l-3 -52 -22 41 c-12 22
-29 46 -37 53 -9 8 -16 21 -16 30 0 10 -8 26 -17 37 -10 11 -24 31 -32 44 -11
20 -11 24 4 32 15 9 15 11 -4 24 -11 8 -21 28 -23 47 -3 28 -8 33 -40 41 -48
12 -50 37 -7 84 17 19 32 32 33 30 33 -45 50 -90 57 -161 5 -44 12 -83 14 -86
10 -9 34 35 35 62 0 15 -7 44 -15 64 -14 32 -14 34 1 22 8 -7 21 -26 29 -43
21 -49 17 -13 -5 48 -13 32 -43 79 -75 115 -64 72 -71 83 -80 138 -6 38 -5 41
14 36 11 -3 42 -29 67 -59 51 -58 72 -66 33 -12 -34 45 -50 86 -39 93 24 15
-6 40 -68 59 -20 7 -22 4 -23 -31 -1 -21 -3 -30 -6 -20 -3 11 -13 27 -24 38
-10 10 -16 25 -13 34 4 9 1 15 -7 15 -8 0 -30 23 -49 50 -19 28 -46 57 -59 66
-23 16 -24 16 -17 -7 30 -97 106 -376 105 -387 0 -4 -13 21 -29 56 -17 34 -34
62 -39 62 -11 0 -26 39 -23 57 2 6 -8 19 -20 27 -12 9 -17 16 -10 16 6 0 12 5
12 10 0 13 -33 13 -47 -1 -16 -16 -56 11 -41 28 6 8 12 25 14 40 7 70 -69 59
-83 -12 -4 -22 -7 -49 -8 -59 0 -11 -5 -21 -12 -23 -16 -6 -28 18 -13 27 14 9
7 40 -9 40 -5 0 -12 -11 -15 -25 -5 -21 -11 -24 -35 -19 -24 5 -29 2 -35 -19
-8 -33 2 -57 23 -57 13 0 13 -2 2 -9 -13 -8 -13 -21 2 -110 3 -13 10 -27 17
-31 7 -4 10 -15 7 -24 -5 -13 -11 -11 -37 13 -24 22 -34 43 -45 96 -15 72 -11
145 9 145 8 0 13 25 14 76 1 42 4 79 6 83 3 4 1 13 -4 21 -6 9 4 25 32 51 35
32 40 42 34 66 -4 18 -3 23 3 14 7 -11 10 -9 16 8 4 13 4 25 1 28 -3 4 -6 1
-6 -6 0 -7 -4 -10 -9 -7 -5 3 -7 21 -4 40 3 25 0 35 -13 40 -20 8 -42 -8 -25
-18 16 -10 13 -35 -5 -54 -15 -15 -16 -14 -9 8 9 31 1 24 -19 -15 -11 -21 -12
-32 -4 -42 8 -10 5 -13 -16 -13 -31 0 -36 -31 -9 -58 15 -15 14 -17 -8 -23
-41 -12 -59 -10 -59 6 0 8 -4 15 -9 15 -5 0 -8 -11 -5 -24 2 -14 0 -27 -6 -31
-6 -3 -7 1 -4 9 3 9 1 16 -5 16 -6 0 -11 -11 -11 -23 0 -37 -31 -60 -65 -47
l-28 11 18 -28 c10 -16 25 -37 35 -48 9 -11 38 -63 63 -115 26 -52 38 -84 27
-70 -10 14 -35 58 -55 98 -19 40 -42 75 -50 78 -8 4 -15 10 -15 15 0 4 -13 28
-30 52 -16 25 -30 48 -30 52 0 3 -7 13 -15 21 -8 9 -15 27 -15 42 0 32 -27 78
-84 146 -22 28 -40 55 -38 62 1 7 -27 43 -64 80 -65 67 -66 68 -43 78 33 14
33 14 19 31 -8 10 -9 15 -1 15 6 0 29 17 50 38 22 20 55 52 75 70 20 18 48 56
63 85 23 43 27 64 26 127 -1 137 -5 192 -15 178 -5 -7 -6 -53 -2 -103 6 -79 5
-88 -8 -77 -10 8 -17 38 -20 83 -4 55 -10 75 -29 95 -30 32 -230 134 -264 134
-14 0 -28 7 -31 15 -4 8 -15 15 -25 15 -10 0 -19 6 -19 14 0 8 -15 16 -33 20
-44 8 -81 57 -72 94 5 21 8 23 16 11 8 -12 11 -12 22 2 6 9 17 14 24 12 6 -2
14 1 18 6 3 6 21 11 38 11 40 0 70 37 43 52 -37 21 7 118 62 139 12 5 22 17
22 27 0 23 -39 32 -247 58 -136 16 -144 16 -162 0 -25 -23 -55 -17 -59 11 -3
23 -36 30 -337 73 -82 11 -160 22 -173 24 -19 3 -14 -6 30 -52 l52 -55 -23
-18 c-17 -14 -28 -16 -41 -9 -9 5 -21 6 -25 2 -4 -4 -6 2 -3 14 4 14 -1 25
-13 33 -11 6 -19 20 -19 31 0 11 -4 20 -10 20 -5 0 -10 -22 -10 -50 0 -43 3
-50 20 -50 11 0 20 -4 20 -10 0 -5 -9 -10 -20 -10 -18 0 -20 -7 -20 -64 0 -50
4 -65 16 -70 16 -6 16 -8 0 -24 -9 -10 -16 -31 -16 -45 0 -23 4 -27 29 -27 17
0 33 -4 36 -10 3 -5 16 -10 29 -10 26 0 82 -26 92 -42 5 -8 1 -9 -12 -4 -10 5
-40 8 -66 7 -27 -1 -61 5 -78 14 l-31 16 3 -43 c2 -34 6 -42 21 -40 9 2 17 -2
17 -8 0 -13 79 -4 95 11 5 5 44 9 87 9 53 0 78 4 78 12 0 6 2 9 5 6 13 -12 -9
-36 -37 -42 -17 -3 -42 -20 -57 -37 -14 -18 -43 -48 -63 -68 -20 -20 -53 -70
-74 -110 -31 -62 -38 -87 -42 -153 -4 -70 -2 -83 17 -108 28 -39 27 -44 -14
-59 l-35 -12 0 -1360 0 -1359 430 0 c237 0 430 3 430 8 0 4 -5 83 -10 177 -27
481 -36 674 -45 960 -3 99 -8 191 -10 205 -2 14 -7 117 -11 230 -3 113 -7 228
-9 255 -3 28 -9 194 -15 370 -6 176 -16 371 -22 433 -8 80 -8 116 -1 123 14
14 24 -150 48 -801 4 -96 11 -179 17 -185 6 -6 8 25 4 90 -3 55 -8 194 -12
310 -3 115 -8 213 -10 217 -6 10 107 10 122 0 21 -14 84 -1020 99 -1582 3
-118 20 -480 30 -675 3 -50 8 -100 10 -112 l5 -23 380 0 380 0 -5 28 c-4 24
-17 257 -31 562 -3 52 -9 142 -15 200 -6 58 -13 149 -15 203 -5 95 -4 98 15
88 15 -9 20 -25 25 -83 12 -158 26 -387 43 -685 l17 -313 30 0 29 0 -6 158
c-4 86 -12 211 -17 277 -20 234 -30 361 -36 484 l-6 123 104 -55 c164 -88 249
-113 513 -153 69 -10 165 -35 255 -66 80 -27 222 -69 317 -94 124 -32 190 -55
240 -83 37 -21 88 -49 113 -62 27 -15 51 -37 61 -56 9 -18 21 -39 27 -46 11
-13 102 -235 102 -249 0 -4 -11 -8 -25 -8 -14 0 -51 -13 -82 -28 -67 -33 -243
-133 -243 -138 0 -2 230 -4 511 -4 405 0 509 3 503 13 -5 8 -2 8 9 -2 13 -10
20 -11 30 -2 8 6 16 9 18 6 3 -2 4 21 2 50 -1 30 2 55 7 55 5 0 7 -7 4 -15 -4
-8 -1 -15 5 -15 6 0 11 5 11 10 0 23 20 7 29 -22 8 -30 9 -30 10 -8 2 23 2 24
13 6 8 -14 8 -24 -1 -38 -8 -12 -8 -18 0 -18 5 0 7 -5 4 -10 -3 -5 1 -10 9
-10 12 0 16 11 16 41 0 37 2 40 16 28 8 -7 13 -20 11 -30 -9 -32 8 -43 37 -24
24 16 28 16 44 1 17 -14 126 -16 1201 -16 713 0 1180 4 1176 9 -3 5 -1 12 5
16 18 11 11 24 -17 27 -14 2 -29 9 -31 17 -3 8 0 11 6 7 6 -4 8 2 5 15 -5 19
-8 17 -25 -17 -24 -50 -42 -68 -35 -34 8 36 26 155 35 224 7 61 27 85 35 44 4
-22 4 -22 6 2 2 38 19 50 75 50 34 0 59 7 75 19 24 18 24 18 61 -19 21 -21 52
-41 70 -45 39 -9 59 7 40 30 -7 8 -10 18 -7 22 6 6 67 -119 67 -137 0 -5 11
-21 24 -37 14 -16 28 -43 32 -59 8 -35 42 -94 54 -94 5 0 9 23 8 50 0 31 -4
50 -11 50 -8 0 -7 4 2 9 9 6 10 11 2 15 -14 9 -15 66 -1 66 6 0 15 -12 21 -27
6 -16 16 -36 21 -47 7 -13 6 -21 -2 -26 -9 -6 -6 -10 9 -15 20 -6 20 -8 6 -35
-8 -16 -15 -40 -15 -55 0 -24 2 -25 61 -25 l61 0 -4 53 -3 52 -34 -3 c-22 -3
-31 0 -27 7 4 6 18 11 31 11 31 0 25 23 -29 110 -44 73 -75 110 -89 110 -6 0
-3 -8 6 -18 19 -21 22 -32 7 -32 -6 0 -15 11 -20 25 -5 14 -29 43 -52 65 -23
21 -39 42 -35 47 5 4 88 9 185 11 145 3 181 1 197 -11 19 -14 18 -15 -10 -10
l-30 6 44 -47 c42 -47 111 -177 111 -213 0 -10 6 -40 14 -68 l13 -50 22 45
c26 57 28 147 3 216 -20 59 -41 82 -105 119 -26 15 -46 30 -43 33 3 2 16 -2
28 -10 13 -8 45 -23 71 -33 26 -10 59 -31 72 -47 25 -29 45 -30 45 -3 0 12 5
12 25 3 57 -26 38 22 -30 78 l-46 37 -118 -6 c-65 -4 -127 -10 -136 -14 -15
-5 -17 -3 -12 15 4 12 9 30 12 40 3 9 1 24 -5 32 -8 12 -13 13 -30 3 -26 -17
-41 -16 -34 1 3 8 0 17 -6 21 -9 6 -9 9 0 15 8 5 7 9 -5 14 -14 5 -16 1 -10
-24 5 -25 3 -30 -12 -30 -15 0 -15 -2 -3 -10 16 -10 15 -12 -20 -27 -21 -9
-30 -7 -49 8 -18 15 -27 17 -37 8 -11 -9 -14 -8 -14 5 0 9 5 15 11 13 6 -1 14
4 17 12 3 10 0 12 -12 8 -14 -6 -15 -3 -6 13 6 11 8 20 5 20 -4 0 1 7 9 16 15
14 21 34 12 34 -3 0 -17 -5 -32 -10 -24 -10 -26 -14 -21 -50 4 -30 2 -37 -9
-33 -8 3 -12 9 -9 13 3 4 -2 23 -9 42 -10 24 -12 45 -6 69 15 62 49 134 60
131 7 -1 36 6 66 18 74 27 114 34 114 17 0 -7 -21 -19 -47 -26 -102 -30 -151
-53 -162 -77 -12 -28 -3 -31 37 -10 64 33 201 75 205 63 2 -7 7 -9 11 -6 3 3
0 19 -9 35 -8 16 -15 25 -15 19 -1 -5 -8 3 -16 18 -12 23 -20 27 -37 22 -12
-3 -35 -10 -52 -15 -16 -4 -38 -11 -47 -15 -16 -6 -18 -1 -18 50 0 31 -4 54
-9 51 -5 -3 -11 3 -14 14 -3 11 0 20 6 20 9 0 9 2 0 8 -6 4 -14 25 -18 47 -30
180 -61 295 -85 310 -4 2 -3 -15 1 -38 28 -139 50 -277 55 -345 6 -81 10 -68
-72 -291 -3 -10 -8 -11 -15 -4 -9 9 35 165 62 214 6 13 6 40 -1 81 -50 313
-60 383 -56 394 4 10 -3 14 -20 14 -20 0 -23 -4 -19 -22 3 -13 11 -68 19 -123
8 -55 20 -136 26 -180 6 -44 15 -93 20 -108 7 -22 3 -40 -20 -85 -15 -31 -33
-76 -39 -99 -11 -39 -28 -53 -44 -37 -7 8 18 79 41 112 24 35 43 100 31 108
-5 3 -9 31 -9 62 0 31 -5 75 -10 97 -5 22 -12 67 -15 100 -4 33 -11 77 -16 99
-6 21 -8 40 -5 43 3 3 1 14 -5 24 -10 20 -39 26 -39 9 0 -5 -8 -10 -18 -10
-10 0 -55 -18 -101 -40 -45 -22 -86 -38 -91 -35 -4 2 -15 -4 -25 -15 -10 -11
-24 -20 -32 -20 -7 0 -13 -3 -13 -8 0 -4 -17 -15 -38 -24 -21 -9 -44 -28 -52
-42 -12 -24 -12 -28 8 -42 12 -8 22 -22 22 -30 0 -8 4 -13 9 -10 4 3 17 -2 27
-10 10 -9 14 -13 7 -10 -45 23 -53 -47 -14 -126 15 -32 23 -58 17 -58 -10 0
-55 60 -65 85 -2 6 -11 19 -21 30 -10 11 -29 65 -43 120 -15 56 -33 105 -42
112 -10 6 -14 16 -10 22 3 6 1 11 -6 11 -6 0 -9 8 -6 20 4 15 0 20 -14 21 -50
4 -56 11 -34 45 16 25 16 28 1 36 -9 5 -16 21 -16 35 0 23 2 24 18 12 15 -13
16 -12 3 4 -18 22 -27 22 -34 -3 -3 -14 -14 -20 -31 -20 -20 0 -26 -5 -26 -23
0 -13 -7 -32 -15 -43 -8 -10 -15 -28 -15 -39 0 -16 -7 -12 -41 23 -27 27 -39
47 -35 58 3 9 13 14 21 11 9 -4 12 -1 9 8 -3 8 1 22 10 31 16 16 12 39 -5 29
-5 -4 -9 -2 -9 2 0 13 38 43 55 43 26 0 25 18 -2 39 -24 17 -26 22 -13 30 13
9 13 12 -3 23 -14 11 -16 19 -9 39 5 13 12 49 15 79 11 97 17 114 58 145 21
17 38 37 39 46 0 24 11 29 34 17 11 -7 25 -12 31 -13 5 0 12 -10 15 -22 7 -29
56 -83 76 -83 8 0 29 -7 47 -16 l32 -16 -29 31 c-17 17 -27 31 -23 31 4 0 0
11 -9 25 -10 15 -14 34 -10 49 10 41 -2 56 -37 49 -18 -3 -38 -13 -44 -21 -12
-14 -13 -14 -13 -1 0 19 -41 39 -80 39 -28 0 -34 8 -31 35 0 6 -9 -3 -22 -19
-12 -16 -30 -38 -40 -50 l-18 -21 11 23 c14 28 -1 29 -19 1 -9 -15 -15 -18
-20 -10 -11 18 -40 2 -47 -26 -4 -13 -2 -34 3 -46 5 -12 6 -34 2 -50 -8 -29 5
-38 15 -11 4 9 9 15 12 12 2 -3 -9 -42 -26 -87 -16 -46 -28 -86 -25 -91 3 -5
1 -10 -5 -12 -16 -5 -30 -104 -30 -209 0 -61 -4 -99 -10 -99 -10 0 -6 -35 7
-70 14 -35 10 -59 -8 -57 -24 4 -37 17 -17 17 25 0 -1 49 -29 56 -12 3 -25 15
-28 25 -7 21 -20 25 -30 9 -7 -11 -67 -4 -95 10 -9 5 -23 2 -35 -7 -16 -13
-17 -15 -2 -10 13 5 17 1 17 -16 0 -27 17 -47 41 -47 10 0 19 -10 22 -28 3
-15 13 -49 23 -77 9 -27 19 -54 20 -60 2 -5 11 -19 19 -31 12 -16 13 -23 2
-37 -9 -13 -20 -14 -54 -8 -40 8 -42 7 -32 -11 6 -10 21 -24 35 -30 13 -6 24
-15 24 -19 0 -5 43 -51 96 -104 53 -52 90 -95 83 -95 -107 -3 -219 -18 -219
-30 0 -10 22 -14 49 -10 8 1 29 -1 48 -5 24 -4 33 -11 33 -25 0 -23 16 -35 26
-19 3 6 0 15 -7 20 -22 13 -6 19 34 12 36 -6 43 -16 31 -47 -9 -24 -64 -20
-104 7 -40 27 -92 42 -200 57 -101 15 -119 27 -116 82 2 24 0 45 -4 48 -4 3
-10 37 -13 75 -5 55 -4 65 5 47 13 -26 21 -27 38 -7 12 15 3 21 -52 39 -12 4
-18 16 -19 38 -1 18 -3 42 -5 53 -2 11 -8 49 -13 85 -5 36 -24 99 -41 140 -29
70 -49 202 -50 322 0 15 -7 33 -15 42 -8 8 -15 21 -15 30 0 20 -16 29 -41 21
-14 -5 -18 -12 -14 -28 3 -12 -3 -4 -13 18 -34 73 -35 92 -7 99 29 7 35 49 9
64 -12 7 -6 11 26 16 23 3 64 18 90 31 27 14 55 22 63 20 7 -3 30 7 50 23 20
16 61 37 91 46 34 11 56 24 56 32 0 19 48 37 82 30 36 -7 134 22 120 36 -6 6
-33 10 -61 10 -28 0 -51 4 -51 9 0 5 -16 -1 -36 -12 -25 -14 -39 -17 -44 -9
-10 16 -50 -8 -88 -51 -31 -36 -90 -72 -103 -63 -4 2 -10 20 -13 39 -5 24 -24
53 -60 90 -46 46 -51 54 -34 59 11 2 17 9 13 15 -3 6 -10 9 -15 6 -4 -3 -13 2
-20 9 -6 8 -20 13 -30 11 -20 -4 -53 31 -44 47 3 4 -2 8 -10 8 -9 0 -15 -3
-14 -7 2 -5 -1 -9 -7 -11 -5 -2 -11 0 -12 5 -4 15 130 103 157 103 11 0 20 4
20 9 0 5 10 7 23 5 12 -2 16 -2 10 2 -25 12 -12 22 17 14 l29 -8 -16 26 c-9
15 -18 29 -20 31 -1 2 -9 -1 -16 -7 -8 -7 -17 -9 -21 -5 -4 4 -4 0 -1 -9 7
-18 -28 -31 -62 -22 -11 3 -34 -1 -51 -10 -16 -8 -32 -12 -36 -9 -3 4 -6 1 -6
-6 0 -7 -15 -19 -32 -27 -61 -29 -93 -47 -121 -71 -37 -30 -44 -29 -50 10 -4
28 2 38 45 81 27 26 46 51 43 54 -4 4 -33 6 -66 5 -45 -2 -61 2 -66 12 -8 22
-32 19 -26 -3 3 -12 -1 -19 -11 -19 -21 0 -20 9 5 41 24 30 8 35 -21 6 -28
-28 -25 -11 10 67 32 71 35 83 20 83 -16 0 -61 -75 -63 -105 -1 -16 -9 -31
-16 -33 -10 -3 -12 0 -8 12 4 9 5 16 4 16 -1 0 -17 -4 -35 -9 -24 -7 -32 -7
-29 2 2 6 18 15 35 19 25 7 32 14 32 33 0 27 -9 32 -27 14 -16 -16 -57 -7 -61
14 -2 12 3 17 17 17 23 0 29 25 9 33 -8 3 -6 8 7 13 11 4 23 12 28 18 5 8 10
6 16 -4 7 -9 6 -19 -1 -27 -6 -8 -8 -16 -4 -20 11 -11 38 23 39 49 1 16 8 25
21 26 25 1 67 42 64 61 -2 9 -10 21 -18 28 -13 10 -11 12 13 18 20 5 25 11 18
19 -14 17 -9 76 7 76 6 0 12 11 12 25 0 14 -3 25 -7 25 -5 0 -9 11 -9 25 -1
14 1 23 5 21 3 -3 26 -7 51 -11 37 -5 42 -4 32 7 -9 11 -9 17 1 27 9 10 6 17
-18 37 -16 13 -27 24 -22 25 4 1 12 2 18 3 7 0 17 9 23 19 9 14 7 21 -6 31
-10 7 -18 17 -18 23 0 5 -16 7 -35 5 -20 -2 -35 -10 -35 -17 0 -8 -9 -13 -20
-12 -11 1 -20 8 -20 17 0 12 -2 12 -9 2 -11 -17 -85 -19 -105 -3 -9 7 -16 20
-16 29 0 12 9 13 48 7 110 -16 251 -1 307 34 19 11 19 12 -2 6 -17 -5 -22 -3
-17 8 5 13 -13 14 -123 10 -81 -3 -123 -1 -115 5 8 5 14 13 13 18 0 5 13 16
29 24 36 19 137 100 197 158 24 24 46 42 49 39 3 -2 9 -30 14 -62 5 -32 12
-60 15 -63 8 -8 -4 75 -17 116 -5 18 -7 36 -4 39 3 4 6 0 6 -8 0 -12 2 -12 9
0 7 11 10 9 16 -8 4 -12 15 -21 27 -21 15 0 18 4 13 18 -18 46 -17 73 1 87 18
13 18 14 -4 44 -12 17 -22 36 -22 43 0 7 -23 31 -51 53 -28 22 -59 47 -68 57
-17 17 -94 54 -176 84 -31 11 -43 20 -32 22 33 7 18 28 -18 26 -19 -2 -35 1
-35 5 0 5 -16 9 -36 8 -29 -1 -34 -4 -31 -19 4 -15 -1 -18 -33 -18 -27 0 -40
5 -45 17 -3 10 -1 19 4 21 18 6 13 23 -14 48 -36 33 -33 57 6 50 16 -2 41 -12
54 -20 13 -9 33 -16 44 -16 11 0 25 -8 30 -19 6 -11 26 -21 51 -25 34 -5 46
-2 73 18 18 13 49 26 69 30 36 7 36 7 26 37 -7 21 -25 37 -58 54 l-48 24 -7
78 c-3 43 -9 90 -11 106 -5 25 -3 27 26 27 58 0 142 -56 193 -130 16 -23 16
-22 0 10 -49 93 -218 204 -259 169 -24 -19 -62 -18 -144 3 -41 11 -82 21 -90
23 -8 1 -16 9 -18 18 -4 20 9 22 26 5 8 -8 12 -8 12 -1 0 15 -24 33 -49 38
-12 2 -24 5 -29 7 -4 2 -36 1 -72 -3z m-243 -103 c10 -10 -9 -27 -53 -46 -24
-11 -44 -24 -44 -28 0 -4 -8 -8 -17 -9 -10 -1 -31 -5 -48 -8 -28 -7 -26 -3 30
50 54 52 62 56 93 51 19 -3 37 -7 39 -10z m118 4 c-3 -5 -15 -10 -26 -10 -11
0 -17 5 -14 10 3 6 15 10 26 10 11 0 17 -4 14 -10z m405 -40 c41 -13 78 -28
83 -34 4 -6 7 -36 6 -66 0 -30 3 -81 6 -113 6 -54 5 -59 -12 -53 -10 3 -54 15
-98 26 -88 23 -101 30 -62 30 35 0 67 43 67 91 0 37 -10 52 -40 54 -8 1 -33
14 -55 29 -21 15 -51 26 -65 25 -47 -3 -57 1 -37 12 10 6 24 9 30 6 7 -2 21
-1 32 4 15 6 11 8 -18 8 -46 1 -101 -23 -125 -54 -11 -14 -37 -27 -70 -34 -73
-15 -72 -15 -72 24 0 39 -5 36 120 60 101 19 218 13 310 -15z m-250 -24 c0 -2
-8 -10 -17 -17 -16 -13 -17 -12 -4 4 13 16 21 21 21 13z m130 -20 c0 -11 -19
-15 -25 -6 -3 5 1 10 9 10 9 0 16 -2 16 -4z m223 -449 c15 -12 27 -24 27 -29
0 -20 2 -23 22 -31 12 -4 19 -9 17 -12 -6 -5 -91 16 -104 26 -5 4 -54 6 -108
4 -57 -2 -95 0 -92 6 4 5 -1 10 -9 10 -29 3 -32 4 -50 22 -23 23 -13 26 104
30 122 4 159 -1 193 -26z m-258 -47 c-3 -5 -10 -10 -16 -10 -5 0 -9 5 -9 10 0
6 7 10 16 10 8 0 12 -4 9 -10z m-4611 -190 c15 -5 26 -17 26 -28 0 -10 5 -23
11 -29 18 -18 4 -42 -20 -36 -15 4 -21 1 -21 -12 0 -25 -37 -54 -61 -48 -17 5
-20 2 -17 -13 2 -12 13 -20 31 -22 33 -4 36 -30 5 -36 -39 -8 -152 -14 -165
-9 -22 8 -15 41 9 45 13 2 24 10 26 19 2 12 -3 15 -20 12 -19 -4 -27 2 -41 33
-19 39 -12 59 16 48 9 -3 17 -17 19 -32 4 -34 26 -40 33 -8 3 14 7 37 10 51 4
18 12 25 30 25 13 0 27 -5 30 -10 9 -14 25 -2 25 19 0 20 19 41 36 41 7 0 24
-4 38 -10z m66 -198 c0 -12 -7 -17 -25 -17 -29 2 -39 10 -30 24 11 19 55 13
55 -7z m4685 -82 c51 -45 51 -45 -40 -28 -56 11 -65 16 -65 34 0 48 45 46 105
-6z m158 -233 c18 -8 38 -21 45 -29 11 -14 8 -17 -28 -23 -58 -10 -117 3 -135
28 -14 20 -14 22 7 29 38 10 77 9 111 -5z m-1863 -87 c0 -11 -7 -20 -15 -20
-8 0 -15 9 -15 20 0 11 7 20 15 20 8 0 15 -9 15 -20z m380 -17 c0 -22 -2 -25
-10 -13 -13 20 -13 40 0 40 6 0 10 -12 10 -27z m225 -18 c0 -15 -8 -21 -30
-23 -16 -2 -36 -11 -42 -20 -12 -14 -13 -14 -13 1 0 10 7 20 15 23 8 4 15 15
15 26 0 15 6 19 28 16 19 -2 27 -9 27 -23z m-2908 -117 c-3 -8 -6 -5 -6 6 -1
11 2 17 5 13 3 -3 4 -12 1 -19z m-33 -25 c-8 -32 -34 -76 -41 -69 -6 5 34 96
42 96 3 0 2 -12 -1 -27z m-99 -150 c-22 -37 -54 -58 -67 -45 -11 11 -6 19 40
69 32 35 51 17 27 -24z m-75 -52 c0 -5 -8 -17 -17 -27 -17 -17 -18 -17 -21 1
-2 9 2 21 10 26 17 11 28 11 28 0z m-55 -51 c-3 -5 -15 -15 -26 -21 -19 -10
-20 -9 -9 10 6 12 18 21 26 21 8 0 12 -4 9 -10z m4439 -180 c-27 -27 -53 -50
-59 -49 -10 0 94 99 104 99 2 0 -18 -22 -45 -50z m-119 -10 c-3 -6 0 -13 8
-15 19 -8 14 -45 -7 -57 -29 -16 -40 4 -25 46 7 20 17 36 22 36 4 0 5 -5 2
-10z m135 -39 c0 -5 -13 -11 -30 -13 -24 -4 -27 -2 -19 9 13 15 49 18 49 4z
m-80 -46 c0 -21 -38 -42 -90 -49 l-45 -7 55 36 c59 38 80 43 80 20z m-3760
-39 c0 -3 -4 -8 -10 -11 -5 -3 -10 -1 -10 4 0 6 5 11 10 11 6 0 10 -2 10 -4z
m-630 -113 c0 -33 -17 -55 -24 -31 -3 7 -6 37 -9 66 l-4 53 18 -28 c11 -15 19
-42 19 -60z m254 24 c14 -22 -1 -36 -47 -42 -34 -5 -37 -3 -35 20 1 14 7 24
13 22 5 -2 16 3 24 10 16 16 31 13 45 -10z m-114 -53 c12 -30 6 -44 -18 -44
-13 0 -14 -2 -3 -9 11 -7 11 -10 0 -17 -7 -4 -14 -3 -17 4 -2 7 -24 12 -53 12
-42 0 -49 3 -49 19 0 25 15 34 51 33 15 0 33 6 40 14 18 22 38 17 49 -12z
m4112 -20 c-6 -30 -25 -39 -109 -49 -44 -5 -63 -4 -63 4 0 6 -8 11 -17 11 -35
0 3 19 77 38 106 28 118 28 112 -4z m225 -12 c22 2 27 8 25 23 -2 12 0 16 5 9
4 -7 17 -13 27 -15 11 -2 21 -11 23 -19 4 -13 3 -13 -6 0 -15 21 -25 5 -11
-19 13 -26 42 -29 33 -3 -5 14 -3 15 7 5 10 -9 17 -9 26 -2 9 7 19 4 36 -13
12 -12 31 -21 40 -20 10 2 18 -2 18 -9 0 -7 3 -9 7 -6 3 4 12 2 19 -3 6 -6 16
-10 20 -9 27 5 84 -2 84 -10 0 -14 -64 -33 -85 -25 -12 5 -16 4 -12 -3 7 -11
-23 -23 -57 -23 -11 0 -27 -7 -36 -15 -15 -14 -19 -13 -35 5 -18 20 -18 20 14
20 38 0 33 14 -9 29 -18 6 -28 6 -25 1 7 -11 -18 -14 -28 -4 -4 4 -26 8 -49
10 -85 7 -138 19 -138 32 1 10 30 47 35 45 3 -2 17 -3 32 -3 l26 0 -21 23
c-12 13 -19 27 -15 31 4 4 11 -3 15 -14 6 -16 15 -21 35 -18z m-1980 -38 c8
-23 -9 -55 -25 -45 -9 5 -11 17 -6 34 7 30 21 35 31 11z m1533 6 c0 -15 -13
-18 -112 -25 -54 -3 -89 -2 -93 4 -6 11 17 18 75 24 76 8 130 7 130 -3z
m-3249 -49 c7 11 9 10 9 -4 0 -20 -22 -19 -26 1 -2 9 -1 9 3 1 4 -8 8 -7 14 2z
m2769 -23 c0 -17 -3 -19 -9 -9 -6 9 -11 10 -15 2 -4 -6 -22 -11 -39 -11 l-32
1 38 14 c21 7 41 16 44 19 10 10 13 7 13 -16z m757 -4 c-3 -3 -12 -4 -19 -1
-8 3 -5 6 6 6 11 1 17 -2 13 -5z m-1967 -33 c-7 -14 -7 -21 0 -21 5 0 10 -4
10 -10 0 -16 -17 -12 -24 5 -3 9 0 24 6 35 16 25 23 18 8 -9z m551 3 c13 -14
34 -30 47 -35 20 -8 21 -12 11 -31 -12 -24 -44 -58 -54 -58 -3 0 -3 5 0 10 3
6 -3 22 -15 37 -14 17 -19 35 -16 49 4 13 2 26 -4 29 -12 7 -13 25 -2 25 5 0
19 -12 33 -26z m-396 -5 c-4 -11 -8 -35 -10 -52 -1 -18 -9 -48 -18 -67 -9 -19
-26 -80 -37 -135 -12 -55 -27 -113 -33 -129 l-11 -29 -9 24 c-5 13 -11 70 -14
125 -5 97 -5 102 16 113 16 9 21 21 21 51 0 21 5 42 10 45 6 3 10 15 10 25 0
22 36 50 63 50 14 0 17 -5 12 -21z m943 3 c12 10 14 10 8 1 -4 -8 -2 -13 6
-13 50 -2 129 -9 163 -16 38 -8 36 -9 -40 -17 -75 -8 -161 -10 -230 -5 -48 3
-85 -10 -79 -27 4 -10 0 -15 -11 -15 -10 0 -30 -12 -44 -27 -30 -32 -78 -59
-87 -51 -3 4 11 17 30 30 35 24 38 38 8 38 -8 0 -23 -11 -34 -25 -31 -40 -41
-29 -12 15 32 48 79 85 119 93 17 3 39 9 50 13 18 7 18 6 6 -9 -8 -10 -9 -17
-3 -17 6 0 15 6 19 13 12 20 107 36 111 19 3 -11 7 -11 20 0z m717 -2 c-10
-16 24 -24 49 -12 16 7 31 6 55 -4 23 -10 38 -11 51 -4 11 6 21 6 24 1 3 -5
-4 -11 -15 -14 -13 -4 -20 -11 -16 -20 4 -12 -23 -15 -151 -21 -175 -8 -202
-12 -202 -32 0 -8 -4 -14 -9 -14 -4 0 -3 18 2 40 10 34 15 40 39 40 15 0 51 5
80 12 29 6 57 11 61 10 4 -1 10 5 13 13 4 8 10 15 16 15 5 0 6 -5 3 -10z
m-183 -22 c-7 -7 -12 -8 -12 -2 0 14 12 26 19 19 2 -3 -1 -11 -7 -17z m408 18
c0 -3 -4 -8 -10 -11 -5 -3 -10 -1 -10 4 0 6 5 11 10 11 6 0 10 -2 10 -4z
m-1635 -16 c4 -6 -10 -39 -29 -74 -38 -68 -44 -111 -25 -178 8 -33 7 -41 -10
-59 l-20 -22 -36 24 c-34 23 -44 44 -26 51 5 2 12 32 15 68 3 36 7 76 10 90 2
14 5 33 5 43 1 11 10 21 21 24 11 3 20 11 20 18 0 23 63 35 75 15z m1696 -35
c35 -14 78 -28 94 -30 17 -2 41 -6 55 -9 14 -4 19 -4 13 0 -14 6 -18 34 -5 34
8 0 42 -57 42 -71 0 -15 -32 -9 -85 15 -49 23 -50 23 -53 3 -2 -11 2 -24 10
-28 12 -8 4 -13 -14 -10 -5 0 -8 -21 -8 -48 0 -27 -3 -56 -6 -65 -4 -11 -1
-16 10 -16 9 0 17 -4 17 -10 1 -5 2 -15 3 -20 0 -6 8 -15 16 -20 13 -8 12 -10
-3 -10 -10 0 -21 10 -26 22 -14 39 -23 0 -27 -116 -2 -61 -6 -139 -9 -173 -5
-42 -3 -63 4 -63 6 0 11 -10 11 -22 0 -19 -2 -20 -10 -8 -7 10 -10 -11 -10
-67 0 -52 -4 -83 -11 -83 -7 0 -8 24 -5 73 4 39 8 150 11 245 2 95 6 176 9
180 2 4 4 39 4 77 0 39 -2 62 -5 53 -2 -10 -8 -18 -13 -18 -12 0 0 37 16 51 8
6 14 29 14 50 0 37 -2 39 -42 49 -24 6 -57 15 -75 20 -17 4 -33 7 -35 7 -2 -1
5 6 15 16 24 22 21 22 98 -8z m-4404 -75 c27 -41 71 -115 97 -164 l48 -88 -38
6 c-36 7 -72 11 -131 15 -20 1 -21 8 -28 109 -3 59 -8 132 -11 161 -5 63 -4
62 63 -39z m670 29 c-8 -24 -15 -60 -16 -78 -2 -42 -6 -47 -25 -31 -14 11 -14
14 -1 27 8 8 15 32 15 54 0 22 5 39 11 39 6 0 8 7 5 16 -8 20 3 39 16 26 5 -5
3 -26 -5 -53z m3948 35 c9 -15 12 -23 6 -20 -11 7 -35 46 -28 46 3 0 12 -12
22 -26z m-945 1 c-7 -8 -21 -15 -31 -15 -12 0 -16 5 -13 15 4 8 17 15 31 15
22 0 24 -2 13 -15z m-240 -15 c0 -5 -13 -10 -30 -10 -16 0 -30 5 -30 10 0 6
14 10 30 10 17 0 30 -4 30 -10z m-2706 -42 c-3 -5 -10 -5 -16 -2 -6 4 -15 0
-20 -7 -8 -11 -8 -10 -4 4 3 10 6 25 6 33 0 11 4 10 19 -3 11 -9 18 -20 15
-25z m2844 30 c7 -7 12 -18 12 -25 0 -23 -49 6 -50 30 0 11 25 8 38 -5z m99
-6 c7 -5 9 -13 3 -21 -7 -12 -11 -12 -24 2 -9 8 -16 18 -16 21 0 8 23 7 37 -2z
m563 -7 c0 -8 -2 -15 -4 -15 -2 0 -6 7 -10 15 -3 8 -1 15 4 15 6 0 10 -7 10
-15z m-1000 -30 c0 -5 -5 -3 -10 5 -5 8 -10 20 -10 25 0 6 5 3 10 -5 5 -8 10
-19 10 -25z m765 25 c3 -5 1 -10 -4 -10 -6 0 -11 5 -11 10 0 6 2 10 4 10 3 0
8 -4 11 -10z m152 4 c-3 -3 -12 -4 -19 -1 -8 3 -5 6 6 6 11 1 17 -2 13 -5z
m138 -4 c3 -5 1 -10 -4 -10 -6 0 -11 5 -11 10 0 6 2 10 4 10 3 0 8 -4 11 -10z
m45 -2 c0 -4 -7 -8 -15 -8 -8 0 -15 4 -15 8 0 5 7 9 15 9 8 0 15 -4 15 -9z
m80 -20 c0 -5 -9 -4 -20 2 -11 6 -20 12 -20 14 0 2 9 2 20 -1 11 -3 20 -9 20
-15z m17 -15 c-3 -10 -5 -4 -5 12 0 17 2 24 5 18 2 -7 2 -21 0 -30z m-3649 -3
c7 -12 10 -25 7 -30 -4 -6 0 -10 7 -10 19 -1 54 -50 35 -50 -20 0 -68 40 -61
51 3 5 -2 16 -10 25 -9 8 -16 20 -16 25 0 17 25 9 38 -11z m3112 -82 c-7 -51
-13 -103 -12 -115 1 -12 -3 -25 -8 -28 -11 -7 -13 5 -10 44 1 14 -2 21 -9 17
-5 -4 -8 -13 -4 -21 3 -8 0 -15 -6 -15 -6 0 -11 3 -12 8 0 4 -2 15 -4 25 -3
15 6 21 27 18 3 0 11 13 17 29 8 25 7 30 -6 30 -9 0 -13 -3 -10 -6 11 -11 -14
-46 -29 -40 -9 3 -14 -1 -14 -11 0 -9 -3 -13 -7 -9 -11 11 -10 30 2 39 6 5 4
7 -5 4 -8 -2 -15 -10 -16 -18 -1 -21 17 -40 30 -32 6 3 7 2 3 -2 -11 -13 -36
-18 -89 -18 -34 0 -48 -4 -48 -13 0 -8 -4 -14 -10 -14 -12 0 -12 13 -1 60 9
40 54 95 70 86 5 -4 13 -1 17 5 5 8 3 9 -6 4 -8 -5 -11 -4 -6 3 7 11 36 6 36
-7 0 -4 9 -7 20 -8 11 -1 20 2 20 8 0 5 -5 9 -11 9 -8 0 -7 5 1 16 8 9 25 14
44 12 26 -2 32 1 34 20 2 13 6 21 9 18 3 -3 0 -47 -7 -98z m414 77 c-4 -8 -8
-15 -10 -15 -2 0 -4 7 -4 15 0 8 4 15 10 15 5 0 7 -7 4 -15z m-589 -5 c-3 -5
-12 -10 -18 -10 -7 0 -6 4 3 10 19 12 23 12 15 0z m54 -7 c0 -11 -3 -13 -6 -5
-2 6 -9 10 -14 6 -5 -3 -9 0 -9 5 0 6 7 11 15 11 8 0 15 -8 14 -17z m761 -23
c5 0 14 -16 21 -35 7 -19 20 -35 29 -35 8 0 28 -11 43 -24 24 -21 26 -25 10
-26 -45 -2 -80 -7 -91 -14 -7 -4 -12 -2 -12 3 0 6 -6 11 -14 11 -21 0 -26 36
-13 103 6 36 13 53 15 40 2 -13 7 -23 12 -23z m110 -14 c11 -25 20 -49 20 -54
0 -5 7 -15 15 -22 8 -7 15 -24 15 -39 0 -37 43 -170 68 -211 12 -19 22 -42 22
-50 0 -15 -59 -50 -84 -50 -8 0 -27 -7 -42 -15 -16 -8 -34 -15 -40 -15 -6 0
-25 53 -43 118 -18 64 -35 125 -37 135 -4 11 -1 16 8 15 9 -2 12 6 10 25 -3
22 1 27 20 29 13 1 30 2 38 4 8 1 25 2 37 3 17 1 20 6 16 24 -3 12 -12 27 -20
34 -27 21 -49 113 -27 113 2 0 13 -20 24 -44z m-300 0 c0 -3 -4 -8 -10 -11 -5
-3 -10 -1 -10 4 0 6 5 11 10 11 6 0 10 -2 10 -4z m-40 -31 c0 -8 -7 -15 -15
-15 -13 0 -14 3 -3 15 16 18 18 18 18 0z m-1249 -17 c-5 -13 -18 -24 -32 -26
l-24 -4 24 26 c30 32 43 33 32 4z m1668 -58 c0 -13 -1 -13 -8 0 -5 8 -12 26
-15 40 l-7 25 15 -25 c9 -14 15 -32 15 -40z m-379 40 c0 -5 -7 -7 -15 -4 -8 4
-15 8 -15 10 0 2 7 4 15 4 8 0 15 -4 15 -10z m65 -10 c3 -5 1 -10 -4 -10 -6 0
-11 5 -11 10 0 6 2 10 4 10 3 0 8 -4 11 -10z m-3790 -58 c-8 -8 -25 10 -19 20
4 6 9 5 15 -3 4 -7 6 -15 4 -17z m2445 18 c13 -8 13 -15 -4 -57 -30 -79 -43
-146 -28 -151 25 -8 11 -24 -18 -20 -24 4 -27 2 -19 -9 9 -10 8 -13 -1 -13 -8
0 -22 -7 -32 -17 -17 -15 -18 -15 -18 5 0 12 -8 23 -19 27 -25 8 -30 33 -14
65 6 14 29 60 49 103 32 67 40 77 63 77 14 0 33 -5 41 -10z m-2189 -49 c28
-10 29 -12 29 -70 0 -34 -4 -61 -10 -61 -5 0 -10 5 -10 11 0 5 -4 7 -10 4 -5
-3 -25 9 -43 27 -19 18 -52 44 -75 58 -49 29 -52 40 -14 41 15 0 43 6 62 12
27 10 36 10 38 0 2 -6 16 -16 33 -22z m1733 14 c14 -11 17 -18 9 -26 -14 -14
-53 5 -53 26 0 19 19 19 44 0z m1783 -1 c-3 -3 -12 -4 -19 -1 -8 3 -5 6 6 6
11 1 17 -2 13 -5z m-3697 -36 c35 -25 37 -34 11 -41 -26 -6 -64 24 -55 46 8
22 9 21 44 -5z m4067 -30 c-3 -8 -6 -5 -6 6 -1 11 2 17 5 13 3 -3 4 -12 1 -19z
m-3731 -15 c3 -16 10 -41 15 -57 22 -70 -1 -77 -31 -9 -33 76 -36 93 -11 93
14 0 22 -8 27 -27z m-436 -13 c0 -32 -14 -40 -24 -14 -10 27 -7 44 9 44 10 0
15 -10 15 -30z m3921 -22 c0 -13 -3 -35 -6 -50 -6 -21 -4 -26 12 -25 14 2 21
-10 31 -58 8 -33 15 -66 18 -72 5 -17 52 -16 104 2 50 18 50 18 50 5 0 -5 -10
-10 -22 -10 -13 0 -29 -4 -36 -9 -18 -11 7 -21 53 -21 18 0 46 -3 62 -6 28 -5
29 -7 27 -67 -2 -94 -5 -98 -19 -22 -8 45 -13 59 -14 38 -1 -36 -3 -38 -32
-23 -26 14 -25 -5 1 -45 11 -16 20 -41 20 -54 0 -22 -3 -23 -40 -17 -22 3 -63
11 -91 17 -44 10 -49 13 -37 25 20 21 11 81 -13 87 -11 3 -19 9 -18 14 1 4 1
19 -1 33 -1 23 -2 23 -9 5 -8 -19 -8 -19 -15 3 -4 12 -12 22 -17 22 -6 0 -7
-4 -4 -10 3 -5 1 -10 -5 -10 -6 0 -10 -8 -8 -17 2 -11 -2 -17 -10 -15 -8 1
-11 -2 -6 -9 10 -16 11 -69 2 -69 -5 0 -8 -9 -8 -20 0 -11 -5 -20 -11 -20 -9
0 -10 25 -4 93 4 50 9 122 11 160 2 37 6 72 9 78 4 5 1 17 -7 26 -9 12 -9 15
0 9 8 -5 12 -1 12 11 0 11 -6 25 -12 32 -10 11 -10 13 0 7 8 -5 12 0 12 16 1
20 2 21 10 6 6 -9 10 -27 11 -40z m-2321 -68 c0 -19 -11 -26 -23 -14 -8 8 3
34 14 34 5 0 9 -9 9 -20z m-1975 -22 l90 -11 61 -64 c50 -51 81 -72 158 -108
53 -25 100 -45 105 -45 13 0 21 -37 21 -97 l0 -53 -47 0 c-56 0 -264 25 -339
40 -48 10 -65 22 -92 67 -5 7 -32 13 -62 14 -30 1 -65 7 -76 15 -16 9 -24 10
-33 1 -21 -21 -28 7 -35 135 l-7 127 83 -5 c46 -2 124 -10 173 -16z m1308 -35
c3 -16 8 -37 12 -48 4 -13 1 -12 -8 5 -21 36 -30 70 -19 70 5 0 12 -12 15 -27z
m2019 11 c-17 -12 -22 -26 -24 -62 -1 -46 -1 -46 -5 -8 -6 58 3 86 29 86 l22
0 -22 -16z m2558 -9 c0 -8 -19 -24 -42 -34 -137 -60 -270 -113 -274 -108 -3 3
3 10 13 16 10 5 34 19 53 30 31 18 70 37 195 96 40 18 55 18 55 0z m-4202 -15
c7 -12 17 -18 22 -15 5 3 11 1 15 -5 3 -5 1 -10 -5 -10 -6 0 -8 -5 -5 -11 9
-14 -14 -97 -29 -106 -6 -3 -8 -3 -4 2 8 9 -15 35 -32 35 -7 0 -8 -6 -2 -17
14 -27 24 -140 14 -147 -6 -3 -15 1 -22 9 -7 8 -10 15 -7 15 12 0 -39 66 -83
108 -40 37 -43 43 -28 52 19 12 13 40 -8 40 -7 0 -11 6 -8 14 5 12 120 54 154
55 8 1 21 -8 28 -19z m4229 -22 c-3 -7 -5 -2 -5 12 0 14 2 19 5 13 2 -7 2 -19
0 -25z m-577 5 c0 -5 -11 -13 -25 -20 -27 -12 -33 -5 -13 15 13 13 38 16 38 5z
m-770 -25 c0 -7 -11 -14 -25 -14 -28 -2 -34 12 -7 19 29 8 32 7 32 -5z m1360
-23 c0 -13 -3 -16 -8 -8 -6 9 -16 7 -40 -7 -18 -11 -38 -20 -44 -20 -6 0 -56
-18 -111 -41 -54 -22 -101 -38 -104 -35 -17 17 49 54 182 101 104 38 125 39
125 10z m-3370 -15 c0 -5 -7 -10 -16 -10 -8 0 -12 5 -9 10 3 6 10 10 16 10 5
0 9 -4 9 -10z m-1649 -27 c17 -33 125 -140 192 -189 26 -20 47 -42 47 -50 0
-18 -4 -18 -40 1 -16 8 -31 24 -35 35 -3 11 -13 20 -21 20 -8 0 -14 5 -14 10
0 6 -6 10 -13 10 -36 0 -169 165 -149 184 11 11 19 6 33 -21z m450 18 c7 11 9
10 9 -5 0 -17 46 -66 62 -66 4 0 14 -13 23 -30 14 -27 14 -30 0 -30 -27 0 -63
30 -90 75 -14 24 -25 50 -24 57 0 10 2 10 6 -1 5 -11 7 -11 14 0z m610 -14
c-10 -9 -11 -8 -5 6 3 10 9 15 12 12 3 -3 0 -11 -7 -18z m776 -103 c54 -43
109 -88 122 -99 57 -46 121 -104 196 -176 44 -42 102 -97 128 -122 l48 -44
-53 -6 c-34 -3 -56 -1 -60 7 -5 7 -8 6 -8 -3 0 -19 -11 -8 -15 16 -1 10 -8 17
-14 15 -6 -1 -11 5 -11 14 0 8 -4 12 -10 9 -5 -3 -10 2 -10 12 0 15 -2 16 -10
3 -8 -13 -10 -12 -10 3 0 15 -3 16 -21 6 -15 -8 -19 -8 -15 0 4 6 1 11 -6 12
-7 0 -4 4 7 9 17 7 17 9 3 9 -10 1 -18 9 -19 19 0 14 -2 14 -9 -3 -7 -17 -9
-16 -10 10 -1 26 -3 27 -10 10 -7 -17 -9 -16 -10 10 -1 26 -3 27 -10 10 -8
-18 -9 -17 -9 8 -1 27 -14 36 -26 17 -4 -6 -11 -8 -16 -4 -6 3 -5 12 3 22 10
12 10 14 1 8 -9 -5 -13 1 -14 21 l-1 28 -8 -30 c-7 -29 -8 -29 -10 10 -2 39
-3 39 -10 10 -7 -29 -8 -29 -10 10 -2 39 -3 39 -10 10 l-8 -30 -1 28 c-1 25
-4 27 -28 21 -26 -7 -27 -6 -13 11 9 11 10 16 3 11 -9 -5 -13 1 -14 21 l-1 28
-8 -30 c-7 -29 -8 -29 -10 10 -2 39 -3 39 -10 10 l-8 -30 -2 30 c-1 26 -3 27
-10 10 -8 -19 -9 -19 -9 1 -1 22 -25 39 -42 28 -5 -3 -9 7 -10 23 0 25 -1 26
-9 8 -7 -17 -9 -16 -10 10 l-2 30 -8 -30 -8 -30 -1 28 c0 16 -5 26 -11 22 -5
-3 -10 1 -10 9 0 9 -5 16 -11 16 -6 0 -8 -7 -5 -17 5 -11 -1 -9 -16 7 -22 23
-22 27 -10 48 8 12 10 22 6 22 -5 1 4 7 21 14 27 11 32 10 47 -9 9 -12 61 -57
115 -101z m3163 85 c-17 -12 -21 -21 -14 -26 6 -5 14 -46 17 -93 3 -47 8 -95
12 -107 6 -18 3 -23 -9 -23 -10 0 -14 -4 -11 -10 3 -5 1 -10 -6 -10 -6 0 -9
-8 -6 -20 3 -11 1 -23 -4 -26 -5 -3 -9 1 -9 8 0 9 -3 9 -10 -2 -14 -22 -12
-30 5 -24 23 9 18 -13 -6 -30 -19 -13 -24 -13 -47 2 l-25 16 23 6 c13 3 25 11
27 17 3 7 -4 9 -16 6 -16 -4 -21 -1 -21 13 0 9 -3 15 -6 11 -3 -3 -6 -8 -5
-11 0 -3 -4 -19 -9 -35 -7 -24 -5 -31 8 -35 10 -3 5 -4 -10 -2 -17 2 -29 -3
-33 -12 -4 -11 0 -13 15 -9 11 3 20 1 20 -5 0 -6 7 -8 15 -4 8 3 15 1 15 -4 0
-16 -19 -21 -40 -10 -30 16 -25 -5 8 -28 18 -14 24 -24 17 -31 -18 -17 -54 24
-96 110 -22 45 -52 98 -66 118 -15 20 -21 30 -13 24 31 -28 39 -15 24 35 -8
26 -19 55 -25 65 -8 14 -5 17 16 17 16 0 23 4 19 14 -6 16 30 28 43 15 12 -12
45 0 40 15 -4 12 77 56 104 56 22 0 69 23 69 34 0 5 3 6 7 2 4 -4 -3 -16 -17
-27z m-4136 -57 c4 -6 2 -21 -4 -32 -17 -31 -40 -7 -40 39 0 50 23 74 31 33 3
-16 9 -34 13 -40z m3611 48 c0 -7 -6 -15 -12 -17 -8 -3 -13 4 -13 17 0 13 5
20 13 18 6 -3 12 -11 12 -18z m552 -47 c-3 -10 -5 -2 -5 17 0 19 2 27 5 18 2
-10 2 -26 0 -35z m-1957 -44 c32 -28 64 -48 70 -44 5 3 8 11 5 16 -8 12 6 11
25 -1 13 -8 13 -10 -1 -10 -9 0 -19 -6 -22 -14 -7 -16 23 -46 45 -46 8 0 23
-9 32 -19 10 -11 28 -22 42 -25 21 -6 24 -12 24 -51 0 -48 -16 -60 -37 -26 -7
12 -29 21 -59 26 -35 5 -44 9 -33 17 11 7 11 11 2 15 -7 2 -13 11 -13 19 0 17
-5 17 -30 4 -21 -11 -46 11 -37 34 7 18 -59 71 -68 56 -11 -17 -35 9 -35 37 0
24 16 63 26 63 3 0 32 -23 64 -51z m1520 -93 c0 -14 -35 62 -44 95 -3 13 5 0
19 -30 14 -29 25 -59 25 -65z m458 -21 c-1 -35 -2 -33 -8 15 -5 30 -8 71 -8
90 1 28 2 25 8 -15 5 -27 8 -68 8 -90z m-754 99 c3 -8 2 -12 -4 -9 -6 3 -10
10 -10 16 0 14 7 11 14 -7z m-3745 -3 c9 -1 11 -9 7 -26 -5 -18 -2 -25 9 -25
8 0 15 -6 16 -12 0 -10 2 -10 6 -1 3 8 19 -2 44 -27 46 -45 44 -70 -2 -43 -17
10 -38 25 -47 33 -9 9 -38 24 -64 34 -61 22 -69 35 -18 26 43 -8 56 6 16 16
-28 7 -25 34 2 29 9 -2 23 -4 31 -4z m2783 -90 c0 -14 0 -46 -1 -70 -3 -75 42
-101 52 -28 8 54 -11 117 -37 126 -32 13 -4 18 42 9 26 -6 42 -15 42 -24 0 -8
7 -14 16 -14 10 0 14 6 10 15 -7 20 13 19 97 -6 58 -17 74 -19 99 -8 17 7 28
18 26 28 -4 25 16 26 27 2 5 -11 15 -21 21 -21 7 0 17 -13 23 -30 12 -36 8
-37 -26 -5 -15 13 -30 22 -33 19 -3 -3 9 -17 25 -30 17 -13 30 -27 30 -31 1
-5 5 -26 9 -48 16 -78 15 -115 -4 -115 -36 0 -80 13 -80 24 0 6 -14 19 -30 28
-17 9 -30 24 -30 32 0 8 -10 16 -22 18 -13 2 -28 15 -35 29 -7 15 -20 33 -29
40 -14 12 -19 10 -39 -15 -13 -16 -22 -39 -21 -52 1 -21 6 -24 34 -22 24 2 40
-5 60 -25 l27 -28 -90 7 c-119 8 -170 31 -184 81 -7 25 -7 39 0 43 12 8 1 110
-12 110 -5 0 -9 8 -9 18 1 28 40 -25 42 -57z m-65 53 c-3 -3 -12 -4 -19 -1 -8
3 -5 6 6 6 11 1 17 -2 13 -5z m1056 -51 c2 6 8 -12 14 -41 5 -29 7 -52 4 -52
-14 1 -33 19 -46 43 -12 23 -11 25 3 21 15 -5 15 -4 0 9 -10 8 -18 21 -18 29
0 8 -3 18 -7 24 -5 5 4 -2 19 -18 16 -16 28 -22 31 -15z m-2213 -4 c0 -10 -4
-19 -10 -19 -5 0 -10 12 -10 26 0 14 4 23 10 19 6 -3 10 -15 10 -26z m2080
-31 c0 -4 -11 4 -25 18 -14 14 -25 30 -25 37 0 12 49 -42 50 -55z m-1243 -2
c21 -18 29 -32 22 -37 -7 -4 -5 -18 8 -44 l20 -37 20 41 c11 22 17 39 14 36
-4 -2 -18 6 -32 18 -14 12 -19 18 -12 14 6 -5 16 -6 21 -3 12 7 35 -19 39 -42
1 -9 -5 -24 -14 -34 -8 -9 -12 -22 -8 -27 3 -6 1 -11 -6 -11 -7 0 -28 -14 -45
-31 -21 -20 -38 -29 -49 -25 -9 3 -14 10 -11 14 10 16 -72 82 -106 86 -5 1 -8
4 -8 9 0 4 0 13 0 20 0 6 19 34 41 60 45 53 42 53 106 -7z m-2648 -2 c2 -2 -5
-4 -16 -4 -12 0 -23 7 -27 15 -5 13 -2 14 17 4 12 -6 24 -13 26 -15z m1941 16
c0 -5 -2 -10 -4 -10 -3 0 -8 5 -11 10 -3 6 -1 10 4 10 6 0 11 -4 11 -10z m336
-1 c4 -8 -16 -9 -72 -4 -44 4 -81 9 -83 11 -2 2 30 4 72 4 44 0 79 -5 83 -11z
m51 -5 c-3 -3 -12 -4 -19 -1 -8 3 -5 6 6 6 11 1 17 -2 13 -5z m-463 -32 c2 -4
-4 -9 -15 -9 -11 -1 -17 2 -14 8 7 11 22 12 29 1z m3058 -39 c-10 -28 -10 -28
-11 12 -1 28 2 36 10 28 8 -8 8 -19 1 -40z m-4819 12 c20 -14 37 -28 37 -30 0
-14 -29 -1 -60 25 -43 37 -29 39 23 5z m3922 -41 c22 -53 19 -72 -5 -41 -18
22 -28 77 -15 77 3 0 12 -16 20 -36z m-1124 -14 c5 0 9 -4 9 -10 0 -5 -6 -10
-13 -10 -8 0 -13 13 -14 33 0 19 1 23 4 10 2 -13 9 -23 14 -23z m1831 8 c-11
-13 -26 -36 -32 -52 -6 -16 -13 -26 -16 -23 -10 10 47 97 64 97 3 0 -4 -10
-16 -22z m-749 -15 c6 -32 3 -38 -12 -28 -13 8 -15 55 -2 55 5 0 11 -12 14
-27z m-1600 -38 l32 -8 -30 -7 -30 -8 35 -1 c38 -1 63 -15 120 -66 l36 -31
-18 -30 c-10 -16 -18 -46 -18 -66 0 -37 -1 -38 -35 -38 -22 0 -38 -6 -41 -15
-8 -20 -29 -19 -54 2 -28 24 -25 40 11 62 24 15 27 20 14 25 -30 11 -54 6 -65
-14 -6 -11 -15 -18 -21 -15 -5 4 -7 10 -4 14 2 5 -4 16 -15 26 -11 10 -17 22
-14 26 3 5 -2 12 -10 15 -22 9 -9 26 17 22 12 -1 22 0 22 3 0 3 6 13 13 22 12
14 10 17 -12 23 -14 3 -32 4 -39 1 -7 -3 -24 1 -38 9 l-24 13 25 3 c14 1 43 2
65 2 l40 1 -1 40 c-1 22 1 30 3 19 3 -15 15 -24 36 -29z m1724 -39 c-3 -19 -5
-18 -16 9 -7 16 -9 41 -5 55 7 25 7 25 16 -9 5 -18 7 -43 5 -55z m-1117 47
c34 -6 35 -6 8 -13 -29 -9 -125 -1 -110 9 14 8 60 10 102 4z m1022 -28 c3 -13
1 -22 -3 -19 -9 5 -13 44 -5 44 2 0 6 -11 8 -25z m515 -65 c14 -30 29 -58 35
-61 5 -3 10 -20 10 -37 1 -20 6 -32 15 -32 16 0 17 -17 1 -23 -21 -7 21 -46
64 -59 25 -7 34 -14 26 -19 -10 -6 -8 -16 5 -46 l18 -38 -35 40 c-19 22 -35
46 -36 53 0 7 -16 12 -40 13 -22 1 -45 2 -50 3 -10 1 -54 86 -45 86 3 0 13
-17 24 -37 20 -37 20 -38 21 -10 0 15 -6 38 -14 50 -21 32 -25 83 -6 79 9 -2
4 8 -12 25 -29 30 -33 48 -21 79 5 14 8 15 11 3 3 -7 16 -39 29 -69z m-459 -5
c16 -34 15 -40 -2 -26 -16 13 -28 51 -17 51 4 0 13 -11 19 -25z m-1778 5 c0
-5 -5 -10 -11 -10 -5 0 -7 5 -4 10 3 6 8 10 11 10 2 0 4 -4 4 -10z m-87 -75
c18 -13 18 -14 -2 -24 -16 -9 -22 -8 -31 8 -5 11 -10 22 -10 25 0 11 25 6 43
-9z m1397 -26 c0 -11 -11 -11 -29 0 -7 5 -10 14 -6 20 5 9 10 9 21 0 8 -6 14
-15 14 -20z m410 -10 c0 -5 -4 -9 -10 -9 -5 0 -10 7 -10 16 0 8 5 12 10 9 6
-3 10 -10 10 -16z m662 -13 c13 -26 80 -92 91 -88 4 1 7 -8 7 -19 0 -19 -2
-20 -17 -8 -42 31 -106 96 -119 120 -13 25 -12 27 7 22 11 -3 25 -15 31 -27z
m-1054 -32 c37 -10 25 -23 -14 -14 -19 5 -38 11 -41 14 -8 8 26 7 55 0z m770
-10 c12 -4 22 -13 22 -21 0 -10 10 -14 33 -12 48 3 67 0 67 -11 0 -5 -6 -7
-13 -4 -8 3 -19 -2 -26 -10 -10 -12 -6 -17 20 -30 37 -19 53 -13 39 15 -12 22
-5 23 39 8 17 -6 31 -16 31 -22 0 -11 -44 -37 -62 -37 -5 0 -25 -10 -46 -23
-62 -39 -69 -39 -94 -4 -15 22 -17 28 -5 18 15 -12 17 -11 17 13 0 14 -5 26
-11 26 -6 0 -8 8 -4 19 8 25 -19 51 -55 51 -16 0 -30 7 -34 15 -4 11 2 15 27
15 18 0 42 -3 55 -6z m379 -26 c-3 -8 -6 -5 -6 6 -1 11 2 17 5 13 3 -3 4 -12
1 -19z m-1609 -30 c17 -17 15 -28 -7 -28 -19 0 -35 23 -24 34 9 9 18 7 31 -6z
m435 -28 c3 -11 1 -20 -3 -20 -13 0 -40 42 -34 52 8 12 31 -8 37 -32z m67
-105 c0 -62 -4 -79 -20 -95 -26 -26 -66 -26 -80 1 -14 25 -14 25 30 37 l35 9
-27 13 c-38 18 -35 27 12 35 36 6 40 10 40 35 0 16 -6 31 -12 33 -8 3 -6 6 5
6 15 1 17 -9 17 -74z m577 -7 c-3 -8 -6 -5 -6 6 -1 11 2 17 5 13 3 -3 4 -12 1
-19z m-10 -60 c-3 -8 -6 -5 -6 6 -1 11 2 17 5 13 3 -3 4 -12 1 -19z m-1002
-56 c-6 -7 -45 24 -45 36 0 8 9 4 24 -10 13 -13 22 -24 21 -26z m996 -108 c8
-16 8 -27 0 -43 -14 -26 -55 -29 -47 -3 3 9 11 46 18 82 12 61 13 63 16 25 1
-22 7 -50 13 -61z m-571 7 c0 -26 -4 -29 -46 -35 -51 -7 -72 0 -55 17 6 6 11
19 11 29 0 15 8 18 45 18 43 0 45 -1 45 -29z"/>
<path d="M5485 2040 c-3 -5 -1 -10 4 -10 6 0 11 5 11 10 0 6 -2 10 -4 10 -3 0
-8 -4 -11 -10z"/>
<path d="M5611 2013 c0 -12 2 -14 6 -4 5 11 7 11 15 0 8 -12 9 -12 6 0 -6 22
-28 25 -27 4z"/>
<path d="M5407 2013 c-12 -11 -8 -23 7 -23 8 0 16 7 20 15 5 15 -14 21 -27 8z"/>
<path d="M5485 2000 c3 -5 10 -10 16 -10 5 0 9 5 9 10 0 6 -7 10 -16 10 -8 0
-12 -4 -9 -10z"/>
<path d="M5585 2000 c-3 -5 -1 -10 4 -10 6 0 11 5 11 10 0 6 -2 10 -4 10 -3 0
-8 -4 -11 -10z"/>
<path d="M5505 1980 c-3 -5 3 -10 14 -10 12 0 21 5 21 10 0 6 -6 10 -14 10 -8
0 -18 -4 -21 -10z"/>
<path d="M5690 1970 c-9 -6 -10 -10 -3 -10 6 0 15 5 18 10 8 12 4 12 -15 0z"/>
<path d="M4210 1860 c0 -5 -8 -6 -17 -3 -13 5 -15 2 -10 -11 4 -10 7 -19 7
-21 0 -2 9 -1 20 2 11 3 20 10 20 15 0 5 5 6 10 3 6 -3 10 -2 10 3 0 6 -7 13
-16 16 -21 8 -24 8 -24 -4z"/>
<path d="M4789 1623 c-13 -16 -12 -17 4 -4 16 13 21 21 13 21 -2 0 -10 -8 -17
-17z"/>
<path d="M5770 1353 c0 -13 5 -23 10 -23 13 0 13 11 0 30 -8 12 -10 11 -10 -7z"/>
<path d="M4005 1450 c-15 -16 -16 -23 -6 -33 10 -9 16 -7 32 12 10 13 19 27
19 32 0 16 -26 9 -45 -11z"/>
<path d="M5543 1253 c-3 -10 -8 -22 -11 -26 -2 -5 5 -3 15 4 11 6 20 18 20 25
0 20 -16 17 -24 -3z"/>
<path d="M7086 1160 c-19 -6 -19 -7 1 -12 25 -7 53 6 31 14 -7 3 -22 2 -32 -2z"/>
<path d="M7028 1143 c-22 -6 -23 -19 -2 -27 25 -10 30 -7 31 14 2 20 1 21 -29
13z"/>
<path d="M7020 934 c0 -17 17 -36 24 -26 3 5 -1 15 -9 22 -8 7 -15 9 -15 4z"/>
<path d="M7080 910 c0 -5 5 -10 10 -10 6 0 10 5 10 10 0 6 -4 10 -10 10 -5 0
-10 -4 -10 -10z"/>
<path d="M7015 880 c3 -5 8 -10 11 -10 2 0 4 5 4 10 0 6 -5 10 -11 10 -5 0 -7
-4 -4 -10z"/>
<path d="M5615 960 c-3 -5 -1 -10 4 -10 6 0 11 5 11 10 0 6 -2 10 -4 10 -3 0
-8 -4 -11 -10z"/>
<path d="M4835 720 c-3 -5 0 -10 7 -10 10 0 10 -2 -1 -9 -19 -12 1 -21 35 -15
38 7 44 14 11 14 -17 0 -27 5 -27 15 0 17 -16 20 -25 5z"/>
<path d="M5435 3870 c3 -5 8 -10 11 -10 2 0 4 5 4 10 0 6 -5 10 -11 10 -5 0
-7 -4 -4 -10z"/>
<path d="M1080 3610 c0 -6 23 -10 52 -10 62 0 60 5 -4 13 -29 4 -48 3 -48 -3z"/>
<path d="M1327 3583 c-2 -4 -1 -17 3 -27 6 -19 7 -19 14 -1 7 19 -8 44 -17 28z"/>
<path d="M1430 3563 c1 -4 12 -21 25 -38 21 -25 27 -28 35 -15 19 29 7 55 -27
58 -18 2 -33 0 -33 -5z"/>
<path d="M1760 3520 c-13 -8 -11 -13 12 -32 19 -17 27 -35 31 -71 2 -26 1 -49
-3 -52 -4 -3 -10 -15 -12 -28 -4 -20 1 -26 27 -36 17 -6 49 -11 71 -11 22 0
44 -4 50 -9 5 -5 30 -12 57 -15 47 -7 48 -7 63 29 9 23 26 41 45 49 17 7 39
27 50 45 16 26 17 35 6 51 -15 25 -54 36 -219 60 -72 11 -138 22 -147 24 -9 3
-23 1 -31 -4z"/>
<path d="M1270 3489 c0 -5 5 -7 10 -4 6 3 10 8 10 11 0 2 -4 4 -10 4 -5 0 -10
-5 -10 -11z"/>
<path d="M1400 3390 c0 -14 7 -20 23 -20 13 0 28 -5 35 -12 17 -17 26 -3 18
27 -7 26 -30 34 -40 13 -5 -10 -7 -10 -12 0 -9 19 -24 14 -24 -8z"/>
<path d="M2497 3383 c-16 -16 -4 -33 27 -38 32 -7 76 -37 76 -53 0 -16 -32
-52 -46 -52 -16 0 -18 -13 -5 -38 5 -9 12 -25 15 -35 9 -27 29 -16 38 20 4 17
15 36 23 43 8 7 15 23 15 36 0 17 8 27 24 34 23 8 35 39 28 73 -5 24 -56 22
-93 -4 -30 -21 -49 -19 -49 7 0 14 -41 20 -53 7z"/>
<path d="M8228 3353 c-18 -3 -29 -13 -35 -31 -17 -50 -1 -162 28 -204 11 -14
19 -34 19 -45 1 -10 7 -31 15 -48 12 -27 13 -11 14 153 1 100 -2 181 -6 181
-5 -1 -20 -4 -35 -6z"/>
<path d="M5722 3308 c-23 -27 -24 -58 -3 -58 10 0 35 65 29 79 -2 4 -14 -5
-26 -21z"/>
<path d="M1350 3310 c-9 -17 -14 -19 -26 -10 -11 10 -15 9 -20 -4 -9 -23 4
-49 21 -42 10 4 15 -1 15 -14 0 -42 72 -50 85 -9 4 10 13 19 21 19 8 0 14 7
14 15 0 8 -3 15 -8 15 -4 0 -12 10 -17 23 -14 31 -69 36 -85 7z m68 -42 c3
-13 -3 -18 -22 -18 -20 0 -26 5 -26 21 0 15 5 20 22 17 13 -2 24 -11 26 -20z"/>
<path d="M5468 3253 c7 -3 16 -2 19 1 4 3 -2 6 -13 5 -11 0 -14 -3 -6 -6z"/>
<path d="M5655 3240 c-3 -5 -1 -10 4 -10 6 0 11 5 11 10 0 6 -2 10 -4 10 -3 0
-8 -4 -11 -10z"/>
<path d="M1195 3200 c3 -5 20 -10 36 -10 18 0 28 4 24 10 -3 6 -20 10 -36 10
-18 0 -28 -4 -24 -10z"/>
<path d="M1955 3170 c3 -5 13 -10 21 -10 8 0 14 5 14 10 0 6 -9 10 -21 10 -11
0 -17 -4 -14 -10z"/>
<path d="M2190 3159 c0 -7 -9 -9 -24 -5 -19 5 -23 2 -22 -17 1 -17 8 -23 34
-25 30 -3 32 -1 32 27 0 17 -4 31 -10 31 -5 0 -10 -5 -10 -11z"/>
<path d="M1660 3140 c-12 -8 -10 -10 8 -10 13 0 20 4 17 10 -7 12 -6 12 -25 0z"/>
<path d="M1755 3130 c-3 -6 2 -13 12 -16 10 -3 26 -10 36 -15 10 -5 22 -7 26
-4 5 2 45 0 89 -6 43 -7 97 -8 118 -4 l39 7 -25 14 c-16 8 -58 13 -117 14 -50
0 -95 5 -98 10 -8 13 -72 13 -80 0z"/>
<path d="M5680 3133 c0 -6 -9 -13 -20 -16 -16 -4 -19 -11 -15 -29 4 -17 0 -29
-14 -42 -12 -11 -21 -29 -21 -40 -1 -12 -7 -32 -15 -46 -16 -29 -19 -50 -6
-50 5 0 14 15 21 33 7 17 24 46 37 64 12 17 23 36 23 42 0 5 8 23 17 40 14 24
15 33 5 43 -8 8 -12 8 -12 1z"/>
<path d="M2806 3024 c-4 -10 -3 -21 2 -26 13 -13 43 2 40 21 -4 22 -34 26 -42
5z"/>
<path d="M2675 3010 c3 -5 16 -10 28 -10 18 0 19 2 7 10 -20 13 -43 13 -35 0z"/>
<path d="M5729 2893 c0 -16 -4 -37 -8 -48 -15 -37 -2 -57 33 -52 18 2 40 -2
53 -10 31 -20 43 -9 43 40 0 40 -3 43 -49 70 -27 15 -54 27 -60 27 -6 0 -11
-12 -12 -27z"/>
<path d="M5521 2778 c-13 -16 -21 -31 -18 -34 3 -3 15 9 27 26 29 40 22 46 -9
8z"/>
<path d="M6504 2795 c-11 -27 5 -80 28 -94 20 -12 24 -11 45 15 30 38 29 56
-6 77 -36 21 -60 22 -67 2z"/>
<path d="M6769 2744 c-13 -7 -18 -13 -11 -14 6 0 12 -5 12 -11 0 -5 -6 -7 -12
-4 -7 4 -2 -3 11 -14 13 -12 35 -24 50 -28 14 -3 45 -16 69 -29 23 -13 47 -24
53 -24 5 0 20 -7 34 -16 l24 -15 -25 -37 c-42 -64 -50 -72 -82 -78 -24 -5 -33
-2 -38 10 -12 30 -34 18 -34 -19 0 -32 -2 -35 -29 -35 -40 0 -46 -14 -13 -31
15 -7 34 -19 43 -26 20 -16 50 -7 42 13 -3 8 3 16 13 20 11 3 27 10 36 15 10
5 26 9 37 9 31 0 51 11 51 27 0 17 31 76 43 81 4 2 7 17 7 33 0 22 -5 29 -20
29 -17 0 -20 6 -17 40 3 37 0 42 -32 62 -20 12 -42 28 -49 37 -10 13 -18 13
-43 4 -25 -10 -38 -9 -64 1 -26 11 -36 11 -56 0z"/>
<path d="M7047 2734 c-9 -9 19 -34 37 -34 12 0 16 -10 16 -35 0 -23 6 -37 19
-44 15 -8 20 -27 25 -92 4 -44 5 -84 1 -87 -3 -3 -21 -5 -39 -4 -30 2 -33 0
-33 -23 0 -21 4 -25 26 -24 14 0 20 3 14 6 -16 6 -17 23 -2 23 15 0 59 -42 59
-57 0 -16 10 -16 44 -3 33 12 41 48 22 95 -12 27 -15 59 -12 114 7 125 -26
171 -120 171 -28 0 -53 -3 -57 -6z"/>
<path d="M3530 2680 c0 -35 10 -38 28 -10 14 23 8 40 -14 40 -9 0 -14 -11 -14
-30z"/>
<path d="M1460 2630 c-10 -7 -11 -13 -5 -17 12 -9 65 -124 65 -141 0 -5 -15
-33 -34 -61 -19 -28 -30 -51 -24 -51 18 0 118 92 124 114 3 12 0 35 -7 51 -7
17 -13 34 -13 39 -1 5 -10 14 -21 20 -28 16 -45 33 -45 45 0 14 -20 14 -40 1z"/>
<path d="M3527 2598 c-6 -45 2 -64 17 -42 13 17 9 74 -4 74 -4 0 -10 -15 -13
-32z"/>
<path d="M5650 2615 c-7 -9 -11 -18 -8 -20 3 -3 11 1 18 10 7 9 11 18 8 20 -3
3 -11 -1 -18 -10z"/>
<path d="M6100 2595 c0 -8 9 -15 20 -15 11 0 20 7 20 15 0 8 -9 15 -20 15 -11
0 -20 -7 -20 -15z"/>
<path d="M6711 2564 c-6 -15 -9 -35 -6 -45 9 -27 44 -24 55 5 21 56 -24 93
-49 40z"/>
<path d="M5857 2508 c4 -19 3 -21 -7 -8 -10 13 -11 12 -6 -3 3 -10 6 -23 6
-28 0 -6 5 -7 10 -4 12 8 13 52 1 59 -5 4 -7 -4 -4 -16z"/>
<path d="M1086 2496 c8 -20 49 -45 42 -25 -2 7 -14 19 -26 27 -20 13 -22 13
-16 -2z"/>
<path d="M6618 2438 c-2 -24 -7 -32 -20 -30 -9 1 -31 -6 -50 -16 -25 -14 -32
-25 -30 -41 3 -22 1 -23 -37 -16 -32 5 -42 3 -47 -8 -3 -8 -17 -18 -31 -22
-16 -4 -23 -11 -19 -20 3 -9 0 -12 -10 -8 -16 6 -18 -5 -4 -27 8 -13 12 -12
25 8 9 12 22 22 30 22 8 0 19 9 25 20 13 25 75 28 88 4 8 -14 13 -14 52 5 24
12 56 21 71 21 25 0 29 6 44 57 16 54 16 58 -1 70 -10 7 -32 13 -50 13 -30 0
-33 -3 -36 -32z"/>
<path d="M1670 2416 c0 -17 21 -56 30 -56 19 0 7 55 -12 58 -10 2 -18 1 -18
-2z"/>
<path d="M1995 2406 c-24 -10 -26 -13 -12 -19 22 -8 47 1 47 19 0 8 -1 14 -2
14 -2 -1 -16 -7 -33 -14z"/>
<path d="M7522 2390 c2 -22 8 -35 17 -35 23 0 23 20 1 46 l-20 24 2 -35z"/>
<path d="M3820 2398 c0 -4 7 -8 15 -8 8 0 15 4 15 8 0 5 -7 9 -15 9 -8 0 -15
-4 -15 -9z"/>
<path d="M1215 2358 c1 -13 3 -28 4 -33 0 -6 23 -37 50 -69 28 -34 57 -80 66
-109 9 -28 23 -60 31 -71 14 -20 14 -20 14 5 0 26 30 59 55 59 8 0 16 6 17 13
0 6 3 23 4 37 2 14 5 51 7 83 3 46 0 57 -12 57 -9 0 -40 12 -70 25 -33 16 -57
22 -61 16 -9 -15 -76 -17 -93 -3 -12 10 -14 8 -12 -10z"/>
<path d="M6158 2349 c-21 -12 -23 -40 -6 -57 8 -8 8 -15 -1 -25 -14 -18 4 -27
54 -27 19 0 40 -6 47 -13 17 -18 41 -9 67 25 18 22 19 28 7 35 -8 4 -14 17
-13 28 2 17 -6 21 -48 26 -27 4 -59 9 -70 13 -11 3 -28 1 -37 -5z"/>
<path d="M5907 2329 c7 -7 15 -10 18 -7 3 3 -2 9 -12 12 -14 6 -15 5 -6 -5z"/>
<path d="M7526 2304 c-5 -18 -3 -30 6 -35 23 -15 29 -10 22 19 -10 40 -21 47
-28 16z"/>
<path d="M5739 2302 l-22 -19 34 -12 c23 -8 35 -8 37 -1 2 5 7 8 12 5 4 -3 10
2 14 10 3 8 -3 19 -14 25 -26 14 -34 13 -61 -8z"/>
<path d="M6000 2290 c14 -11 30 -20 35 -20 6 0 -1 9 -15 20 -14 11 -29 20 -35
20 -5 0 1 -9 15 -20z"/>
<path d="M1500 2236 c0 -9 5 -16 10 -16 6 0 10 4 10 9 0 6 -4 13 -10 16 -5 3
-10 -1 -10 -9z"/>
<path d="M6030 2242 c0 -11 46 -32 68 -32 14 1 13 4 -7 20 -23 20 -61 27 -61
12z"/>
<path d="M6537 2226 c-16 -17 -27 -22 -38 -15 -22 14 -59 11 -65 -6 -7 -18
-30 -20 -37 -2 -3 6 -6 7 -6 1 -1 -5 12 -23 28 -38 27 -26 36 -28 118 -30 109
-2 142 11 135 53 -4 32 -37 47 -73 36 -12 -4 -19 -2 -17 5 6 24 -22 21 -45 -4z"/>
<path d="M7291 2231 c-20 -13 -24 -56 -11 -97 19 -56 71 -83 164 -88 64 -4 83
-9 102 -27 26 -24 37 -20 48 18 5 17 0 27 -24 44 -16 13 -30 32 -30 42 0 19
-1 20 -20 2 -11 -10 -20 -24 -20 -32 0 -20 -18 -16 -30 7 -6 11 -29 31 -50 45
-22 14 -56 41 -76 60 -20 19 -36 35 -37 35 -1 0 -8 -4 -16 -9z"/>
<path d="M5815 2170 c3 -6 21 -17 38 -26 l32 -17 -24 27 c-23 25 -59 37 -46
16z"/>
<path d="M7790 2085 c0 -49 -3 -57 -25 -67 -22 -10 -24 -15 -19 -52 6 -45 37
-78 114 -123 25 -15 50 -33 56 -41 9 -12 17 -13 47 -3 35 12 37 15 38 54 0 23
2 62 5 86 4 44 3 46 -58 104 -71 67 -115 97 -140 97 -15 0 -18 -9 -18 -55z"/>
<path d="M6420 2063 c-8 -3 -43 -23 -78 -46 -34 -22 -75 -41 -90 -43 -14 -1
-28 -8 -30 -13 -6 -19 -46 -11 -69 13 -15 16 -20 30 -16 46 4 16 3 21 -5 16
-7 -4 -12 -14 -12 -22 0 -8 -10 -14 -22 -14 l-23 0 22 -18 c12 -10 24 -34 28
-59 5 -33 11 -43 25 -43 43 0 36 -19 -43 -114 -15 -19 -25 -40 -21 -49 8 -23
-15 -32 -30 -11 -13 17 -14 17 -27 -3 -7 -12 -19 -19 -26 -16 -7 3 -13 0 -13
-7 0 -6 -4 -8 -10 -5 -5 3 -10 1 -10 -6 0 -8 -4 -8 -15 1 -12 10 -15 10 -15
-4 0 -9 -8 -16 -20 -16 -13 0 -20 7 -20 20 0 11 -5 20 -11 20 -6 0 -8 -9 -4
-20 3 -11 3 -30 -1 -42 -6 -21 -7 -21 -20 -3 -12 15 -16 16 -30 4 -15 -12 -13
-14 17 -21 19 -3 46 -4 62 -1 17 4 27 1 27 -6 0 -8 6 -7 16 3 29 29 37 19 30
-36 l-7 -53 26 42 c14 24 25 51 23 60 -2 11 3 18 12 18 8 0 18 4 22 10 8 11
176 13 228 3 l35 -7 -40 20 c-27 13 -32 18 -15 15 35 -7 54 7 46 32 -9 27 -62
72 -86 72 -10 0 -21 8 -24 17 -10 25 90 116 121 110 18 -3 25 1 29 19 3 13 4
30 1 38 -3 8 14 33 41 60 25 25 44 46 41 45 -2 0 -11 -3 -19 -6z"/>
<path d="M7013 2033 c-19 -7 -16 -30 5 -35 24 -7 45 15 29 31 -12 12 -15 12
-34 4z"/>
<path d="M1706 2020 c-19 -6 -19 -7 -1 -13 20 -8 29 -4 24 11 -2 5 -13 6 -23
2z"/>
<path d="M2790 1973 c-41 -13 -111 -28 -155 -33 l-80 -9 85 3 c84 3 230 39
230 57 0 5 -1 9 -2 8 -2 -1 -37 -12 -78 -26z"/>
<path d="M2780 1940 c-99 -30 -198 -38 -244 -20 -29 11 -148 31 -153 26 -2 -1
8 -29 21 -62 13 -32 34 -97 46 -144 13 -47 26 -89 30 -93 4 -5 41 0 81 12 56
15 119 21 254 26 99 3 183 9 187 13 6 6 -116 274 -124 271 -2 -1 -46 -14 -98
-29z m136 -107 c27 -58 50 -109 52 -113 2 -4 -16 -10 -40 -13 -36 -4 -62 4
-158 46 -127 55 -230 97 -241 97 -3 0 4 -29 17 -64 l23 -64 -27 -7 c-15 -3
-34 -8 -43 -11 -13 -4 -21 11 -38 68 -12 40 -30 92 -41 116 l-20 42 32 0 c19
0 89 -27 169 -65 128 -61 236 -102 245 -92 2 2 -10 34 -26 72 -17 37 -30 68
-28 70 4 3 61 23 69 24 3 1 28 -47 55 -106z"/>
<path d="M1835 1951 c-3 -5 -1 -12 5 -16 5 -3 10 1 10 9 0 18 -6 21 -15 7z"/>
<path d="M5995 1929 c-8 -11 22 -38 43 -39 17 0 15 14 -6 33 -22 20 -28 21
-37 6z"/>
<path d="M6070 1901 c0 -12 29 -23 42 -15 6 4 5 10 -3 15 -18 11 -39 11 -39 0z"/>
<path d="M7690 1830 c0 -49 9 -60 51 -60 22 0 25 -13 5 -29 -17 -14 -10 -103
11 -146 21 -41 53 -75 72 -75 15 0 37 32 63 92 8 17 23 30 40 33 36 8 35 20
-2 55 -16 15 -30 32 -30 37 0 11 -43 53 -53 53 -4 0 -30 18 -58 39 -29 22 -63
41 -75 44 -23 4 -24 1 -24 -43z"/>
<path d="M5857 1805 c-5 -30 2 -38 20 -24 17 15 17 35 -1 42 -9 4 -16 -3 -19
-18z"/>
<path d="M6695 1803 c-14 -31 -14 -47 -3 -93 14 -55 33 -71 67 -59 13 6 29 8
36 6 6 -3 18 1 28 8 16 11 58 5 117 -17 31 -12 102 -26 94 -19 -5 4 -31 27
-57 51 -46 42 -48 42 -42 17 6 -24 5 -26 -12 -20 -22 9 -83 75 -83 90 0 13
-86 53 -114 53 -13 0 -27 -8 -31 -17z"/>
<path d="M2260 1786 c0 -2 8 -10 18 -17 15 -13 16 -12 3 4 -13 16 -21 21 -21
13z"/>
<path d="M6620 1763 c0 -5 5 -15 10 -23 8 -12 10 -11 10 8 0 12 -4 22 -10 22
-5 0 -10 -3 -10 -7z"/>
<path d="M8050 1635 c-18 -22 -8 -50 19 -50 28 0 47 25 38 49 -8 20 -40 21
-57 1z"/>
<path d="M2987 1591 c3 -12 10 -21 15 -21 13 0 6 32 -9 37 -7 3 -9 -3 -6 -16z"/>
<path d="M2627 1560 c3 -11 9 -17 15 -14 5 3 4 12 -3 20 -16 19 -18 18 -12 -6z"/>
<path d="M7030 1551 c-8 -5 -33 -17 -55 -27 -53 -25 -113 -81 -131 -123 -8
-18 -14 -35 -14 -37 0 -11 19 -1 48 27 32 30 87 53 103 43 13 -8 11 -38 -3
-52 -24 -24 18 -12 62 18 25 17 60 39 78 51 17 12 32 27 32 35 0 19 -38 18
-56 -1 -17 -17 -39 -21 -29 -5 3 6 1 10 -4 10 -6 0 -11 5 -11 10 0 6 9 10 21
10 15 0 20 5 17 23 -3 24 -32 33 -58 18z"/>
<path d="M2642 1508 c6 -18 28 -21 28 -4 0 9 -7 16 -16 16 -9 0 -14 -5 -12
-12z"/>
<path d="M7157 1442 c-16 -17 -16 -20 -2 -26 16 -6 30 14 23 34 -2 7 -11 4
-21 -8z"/>
<path d="M2830 1443 c0 -4 5 -15 10 -23 8 -13 10 -13 10 2 0 9 -4 20 -10 23
-5 3 -10 3 -10 -2z"/>
<path d="M6920 1395 c0 -8 2 -15 4 -15 2 0 6 7 10 15 3 8 1 15 -4 15 -6 0 -10
-7 -10 -15z"/>
<path d="M6718 1343 c-41 -16 -42 -33 -3 -33 14 0 29 -9 35 -20 15 -28 24 -25
39 15 20 57 0 68 -71 38z"/>
<path d="M6745 1210 c-3 -5 -1 -10 4 -10 6 0 11 5 11 10 0 6 -2 10 -4 10 -3 0
-8 -4 -11 -10z"/>
<path d="M7670 846 c0 -14 93 -161 130 -206 39 -48 100 -145 100 -159 0 -4 9
-16 21 -27 33 -30 59 -90 59 -136 -1 -32 -3 -39 -10 -27 -6 10 -26 26 -45 38
-46 27 -55 10 -26 -47 22 -43 33 -87 52 -204 l13 -78 153 0 153 0 0 399 0 399
-81 1 c-45 1 -87 5 -93 9 -21 13 -426 49 -426 38z"/>
<path d="M7490 740 c-156 -56 -168 -62 -173 -82 -7 -26 9 -31 37 -13 28 19
224 95 243 95 14 0 18 26 6 33 -5 3 -55 -12 -113 -33z"/>
<path d="M7455 675 c-27 -13 -47 -24 -44 -24 14 -2 99 32 99 40 0 11 5 12 -55
-16z"/>
<path d="M7647 688 c4 -7 8 -19 9 -26 4 -21 14 -28 14 -9 0 23 -11 47 -22 47
-5 0 -6 -6 -1 -12z"/>
<path d="M7435 620 c3 -5 8 -10 11 -10 2 0 4 5 4 10 0 6 -5 10 -11 10 -5 0 -7
-4 -4 -10z"/>
<path d="M853 550 c0 -30 2 -43 4 -27 2 15 2 39 0 55 -2 15 -4 2 -4 -28z"/>
<path d="M7463 583 c4 -3 1 -13 -6 -22 -11 -14 -10 -14 6 -2 20 15 22 31 5 31
-6 0 -8 -3 -5 -7z"/>
<path d="M861 354 c0 -11 3 -14 6 -6 3 7 2 16 -1 19 -3 4 -6 -2 -5 -13z"/>
<path d="M7186 275 c-7 -20 4 -46 29 -67 11 -10 15 -17 10 -18 -6 0 -11 -8
-12 -17 -2 -38 -13 -116 -16 -120 -2 -2 -14 23 -26 56 -23 64 -34 68 -73 29
-14 -14 -18 -28 -14 -51 3 -19 -1 -45 -9 -60 l-14 -27 146 0 146 0 -21 23
c-12 13 -22 31 -22 41 0 20 -27 74 -46 94 -8 7 -16 25 -20 40 -3 15 -10 34
-15 42 -5 8 -12 23 -15 33 -8 21 -20 22 -28 2z"/>
<path d="M6860 264 c0 -8 5 -12 10 -9 6 3 10 10 10 16 0 5 -4 9 -10 9 -5 0
-10 -7 -10 -16z"/>
<path d="M6862 205 c0 -16 2 -22 5 -12 2 9 2 23 0 30 -3 6 -5 -1 -5 -18z"/>
<path d="M6880 216 c0 -22 17 -28 24 -10 9 22 8 24 -9 24 -8 0 -15 -6 -15 -14z"/>
<path d="M6990 195 c0 -22 4 -34 10 -30 6 3 10 17 10 30 0 13 -4 27 -10 30 -6
4 -10 -8 -10 -30z"/>
<path d="M2630 96 l0 -96 40 0 c39 0 40 1 34 28 -3 15 -10 40 -15 56 -16 52
-5 62 31 26 20 -20 20 -20 20 5 0 33 -34 65 -76 72 l-34 6 0 -97z"/>
<path d="M2943 97 c-9 -19 -9 -35 -1 -61 l11 -36 109 0 c99 0 109 2 106 18 -3
14 -13 17 -66 14 l-62 -3 0 29 c0 34 -15 50 -56 58 -25 5 -32 2 -41 -19z"/>
<path d="M6978 54 c-7 -28 8 -54 32 -54 21 0 27 15 10 25 -5 3 -10 11 -10 16
0 6 5 7 10 4 6 -3 10 1 10 9 0 24 -18 19 -26 -6 l-8 -23 -6 25 c-6 24 -6 24
-12 4z"/>
</g>
</svg>
